<svg xmlns="http://www.w3.org/2000/svg" xmlns:xlink="http://www.w3.org/1999/xlink" width="400.196" height="400.196" viewBox="0 0 105.885 105.885"><defs><linearGradient id="b"><stop offset="0" stop-opacity=".417"/><stop offset="1" stop-opacity="0"/></linearGradient><linearGradient id="a"><stop offset="0" stop-color="#006c00"/><stop offset="1" stop-color="#00c100" stop-opacity="0"/></linearGradient><linearGradient xlink:href="#a" id="c" x1="79.186" y1="116.516" x2="132.859" y2="192.112" gradientUnits="userSpaceOnUse"/><linearGradient xlink:href="#b" id="d" x1="397.456" y1="600.332" x2="478.736" y2="700.332" gradientUnits="userSpaceOnUse"/></defs><g transform="translate(-47.365 -93.159) scale(.95064)"><ellipse ry="47.625" rx="46.125" cy="154.125" cx="105.845" fill="#00c100" paint-order="stroke fill markers"/><circle cy="153.687" cx="105.515" fill="none" stroke="#26e72b" stroke-width="1.562" stroke-linecap="round" stroke-linejoin="round" stroke-dasharray="1.562,9.372" paint-order="stroke fill markers" r="52.162"/><ellipse cx="105.845" cy="154.125" rx="46.125" ry="47.625" fill="url(#c)" paint-order="stroke fill markers"/><path transform="scale(.26458)" d="M469.066 504.81L292.518 695.037l55.097 59.1a169.294 169.294 0 0052.43 8.384c83.967-.06 155.962-61.915 171.283-147.157z" fill="url(#d)"/><path d="M106.196 128.976c-13.206 0-23.912 11.054-23.912 24.69.01 5.231 1.45 11.228 2.655 12.525v0l-3.975 14.151 14.242-3.633v0c2.882 1.608 6.007 1.638 10.99 1.646 13.206 0 23.912-11.054 23.912-24.69 0-13.635-10.706-24.689-23.912-24.689z" fill="#00a400" stroke="#fff" stroke-width="5.093" stroke-linecap="square" paint-order="stroke fill markers"/><path d="M96.716 146.469c-.482 4.11 1.311 8.588 3.582 11.884 2.923 4.243 6.55 8.023 11.241 8.726.8.12 2.27-.862 2.27-.862l.02.02a4.104 4.104 0 001.059-5.706c-1.269-1.848-4.927-1.357-6.815-.106-1.472-1.487-2.891-3.03-3.8-4.31-.847-1.195-1.763-2.898-2.626-4.65 1.755-1.354 3.398-4.582 2.247-6.38-1.194-1.865-3.731-2.406-5.635-1.274l.656 1.605c-.403-.968-.656-1.605-.656-1.605s-1.424 1.64-1.543 2.658z" fill="#fff" paint-order="stroke fill markers"/></g></svg>